<?xml version="1.0" encoding="UTF-8"?>
<svg id="Capa_1" xmlns="http://www.w3.org/2000/svg" version="1.1" viewBox="0 0 393.88 82.61">
  <!-- Generator: Adobe Illustrator 30.0.0, SVG Export Plug-In . SVG Version: 2.1.1 Build 123)  -->
  <defs>
    <style>
      .st0 {
        fill: #ca1013;
        stroke: #ca1013;
      }

      .st0, .st1, .st2, .st3, .st4 {
        fill-rule: evenodd;
      }

      .st0, .st2, .st5 {
        stroke-miterlimit: 10;
        stroke-width: 2px;
      }

      .st1 {
        fill: #1b191c;
      }

      .st2, .st5 {
        fill: #ff000d;
        stroke: #ff000d;
      }

      .st3 {
        fill: #f5f5f5;
      }

      .st4 {
        fill: #878587;
      }
    </style>
  </defs>
  <path class="st0" d="M263.29,36.06v1.02c.44.39.69.66,1.65.67.71,0,1.43-.02,2.14,0,.22.82.28,2.67.83,4.81,2.1,8.12,8.78,14.75,16.91,16.9,2.21.59,3.82.58,4.79.83.1,2.07-.34,2.62.67,3.78h1.01c1-1.13.59-1.75.67-3.78.69-.19,1.67-.21,2.41-.32,2.39-.35,4.36-1.05,6.5-2.03,4.71-2.16,9.1-6.55,11.28-11.27.58-1.26,1.12-2.6,1.52-4.1.43-1.61.44-3.37.83-4.81,2.05-.09,2.64.33,3.79-.68v-1.01c-1.14-1-1.72-.59-3.78-.67-.39-1.53-.4-3.17-.84-4.81-1.09-4.12-3.39-7.92-6.2-10.7-2.82-2.8-6.55-5.12-10.69-6.2-2.2-.57-3.9-.58-4.82-.83-.07-2.05.32-2.65-.67-3.79h-1.02c-1.01,1.17-.57,1.7-.67,3.78-1.57.38-3.17.35-4.81.82-1.47.42-2.74.88-4.1,1.53-.65.31-1.29.67-1.87,1.02-4.03,2.39-7.29,5.84-9.41,10.26-2.32,4.84-1.78,6.85-2.34,8.92-.71.03-1.42,0-2.14,0-.96,0-1.2.28-1.65.66Z"/>
  <path class="st2" d="M263.29,36.06v1.02c.44.39.69.66,1.65.67.71,0,1.43-.02,2.14,0,.22.82.28,2.67.83,4.81,2.1,8.12,8.78,14.75,16.91,16.9,2.21.59,3.82.58,4.79.83.1,2.07-.34,2.62.67,3.78h1.01c1-1.13.59-1.75.67-3.78.69-.19,1.67-.21,2.41-.32,2.39-.35,4.36-1.05,6.5-2.03,4.71-2.16,9.1-6.55,11.28-11.27.58-1.26,1.12-2.6,1.52-4.1.43-1.61.44-3.37.83-4.81,2.05-.09,2.64.33,3.79-.68v-1.01c-1.14-1-1.72-.59-3.78-.67-.39-1.53-.4-3.17-.84-4.81-1.09-4.12-3.39-7.92-6.2-10.7-2.82-2.8-6.55-5.12-10.69-6.2-2.2-.57-3.9-.58-4.82-.83-.07-2.05.32-2.65-.67-3.79h-1.02c-1.01,1.17-.57,1.7-.67,3.78-1.57.38-3.17.35-4.81.82-1.47.42-2.74.88-4.1,1.53-.65.31-1.29.67-1.87,1.02-4.03,2.39-7.29,5.84-9.41,10.26-2.32,4.84-1.78,6.85-2.34,8.92-.71.03-1.42,0-2.14,0-.96,0-1.2.28-1.65.66"/>
  <path class="st3" d="M297.54,39.17c-1.25,2.87-3.34,4.26-6.48,4.69v3.37s1.37.01,1.37.01c0,0-.12-.25.46.18-.09.79.07.42-1.85.51v3.66c1.63.67.65,2.9.93,6.2,2.91.41,8.62-1.92,11.19-3.76.49-.36.9-.69,1.4-1.08,2.12-1.68,4.19-4.43,5.49-7.15.82-1.72,2.25-5.87,1.96-8.04-1.04-.09-2.41-.02-3.49-.02-1.72,0-1.84.29-2.75-.83l-2.42-.02c-.22.65-.24,1.38-.67,1.67l-1.52.96c.17.77,1.6,2.12-.72,3.26.68.72.64,1.18.36,2.37,1.7-.73,1.63-1.79,2.55-2.03.34-.09.97-.16,1.34-.19-1.6.68-.88-.3-2.24,1.33-.69.83-1.65,1.21-1.97,1.67.75.47,2.78-.55,3.78-.29,1.19.31,2.45.81,3.54,1.05-2.84-.2-2.91-1.64-7.18-.15l-.03.84c2.63.59,2.63-.04,3.29,1.27.52,1.03,1.21,2.08,1.58,3.01-.28-.54-1.86-3.45-2.47-3.6-.46-.12-1.54-.19-2.06-.25.39,1.2.78,1.55.67,3.18-.08,1.11-.6,2.13-1.74,2.21-1.29.1-1.94-.73-2.1-1.91-.23-1.68.2-2.23.64-3.49-.57.08-1.11.14-1.7.21-.8.1-.7.1-1.04.71-.4.7-.98,1.72-1.43,2.27.24-.69.98-1.95,1.35-2.63.5-.92,1.22-.55,3.14-.99v-.84c-3.95-1.38-3.94-.34-6.28-.07.49-.28,2.34-.86,3.05-.92.4-.03,1.17.17,1.58.25l1.77.12c-.34-.5-1.05-.72-1.77-1.45-.31-.32-.39-.58-.74-.91-.44-.42-.65-.26-1.16-.53,2.12.13,1.23,1.18,3.36,2.12-.29-1.16-.23-1.77.37-2.39-1.86-1.48-1.09-1.53-.62-3.08-.36-.27-.25-.34-.72-.51"/>
  <path class="st3" d="M282.94,16.76c-.46,1.51-1.26,2.75-1.55,4.68.52.77,1.02,1.19,1.16,2.49-1.4.59-3.39.97-4.68-.15.2-1.14.73-1.66,1.31-2.34l-.47-2.48c-.93.4-2.96,2.25-3.42,2.91.34.38.73.52,1.25.75,1.25.55.53,2.73,4.2,2.38,2.92-.28,1.76-1.57,3.39-2.11,1.33-.44,1.2-.61,2.08-1.17-.57,1.07-1.27,1.27-2.44,1.65-.47.95-.35.93-.89,1.72-.31.46-.09,1.59-.1,2.35.82-.25,1.22-.94,1.64-1.45,2.17,0,2.3-.43,3.87-.87-.81,1.03-2.01,1.26-3.67,1.27-.74,2.27-2.19,1.14-1.96,3.3,2.12,1.44,2.19.62,1.14,3.6-.31.87-.51,1.65-.61,2.63.13.21.02.14.27.18.67-1.91.24-2.59,2.26-4.61,1.59-1.59,2.08-1.57,4.61-2.26v-3.19s-1.55-.09-1.55-.09l-.02-.63,1.56-.07c.23-5.21-.41-3.38-.67-4.64-.23-1.12.04-3.92-.05-5.29-1.61-.15-5.67.76-6.66,1.43"/>
  <path class="st3" d="M273.65,49.22c.67-.25.12-.04.38-.42l2.04-2.49c.44-.57.5-.51.96-.92-.76.04-.27.06-.44-.15.68-.15,1.61-.77,2.23-.77.79,0,1.8.39,2.78.41-.28-.57-1.57-1.65-2.29-1.94-.38-.15-.65-.2-.92-.5,2.42.36,2.56,1.74,3.67,2.04-.33-1.6-1.11-1.19-1.11-3.62.03.04.05.05.06.12,0,.07.05.09.06.12.13.38.46,2.41,1.46,3.02.02-.03.04-.12.04-.1l.07-1.29c-.06-1.31.5-2.32,1.39-3.29-.02-.19-.62-2.5-.68-2.57-.29.37-.04.72.09,1.14-.29-.39-.35-.56-.58-1.12l-2.5-.03c-.06.55.07,1.32-.18,1.72h-.52s-.05-1.69-.05-1.69h-3.82c-.96,1.13-1.05.83-2.75.83-1.12,0-2.4-.06-3.5.02-.18,1.65.72,4.99,1.26,6.42.55,1.45,1.11,2.59,1.9,3.86.33.54.44.82.94,1.18"/>
  <path class="st3" d="M302.64,33.21l-.32,2.85.84.02c.65-.74,0-.52,1.1-1.01l-.55,1c2.82.49,1.84-.66,3.71-.68,1.47-.01,3.15.08,4.59-.02.46-3.54-2.26-9.26-4.53-12.21-.53-.69-2.22-2.63-2.93-2.86-.41,1.6-3.2,4.34-4.12,5.3l.52.65c.92-.47,1.99-2.1,2.9-2.06.81,1.03.8,3.78,1.86,4.74.2.19.36.3.69.39l.76.23c-.17.38-.12.32-.39.59l-.44.42,1.23,2.15c-1.39-1.52-.59-2.03-2.19-2.32-1.11-.2-2.36-1.18-3.13-1.24.11.66.21,1.43.31,2.09.14.91.03,1.2.08,1.96"/>
  <path class="st3" d="M293.21,29.71c.34-.16.13.04.32-.44.11-.28.13-.45.22-.73l1.99-3.51.81.66c.37-.37.42-.56.83-.81.25-.15.29-.15.59-.23,1.46-.38.32-.26,1.26-3.82.23-.88.85-2.72,1.88-2.26.77,1.27-.87,4.23-1.07,5.45.79-1.59,2.24-3.84,3.78-4.38-1.29-1.13-3.28-2.18-5.13-2.92-1.47-.59-5.02-1.57-6.72-1.38-.06,1.12-.01,2.37-.01,3.5,0,1.42.26,2.25-.91,2.71v3.74c2.04.02,1.83-.24,1.83.57-.47.26-1.02.12-1.81.14l-.02,3.27,2.16.45Z"/>
  <path class="st3" d="M280.41,53.76c-.33.31-.21.23-.61.46-.07.04-.25.14-.36.19-.31.14.2-.02-.31.11.67.33,1.35.82,2.14,1.2,2.06.98,6.15,2.36,8.33,2.08.11-1.39-.18-4.14.06-5.28.23-1.09.7-.08.68-1.92,0-.8.06-1.92-.05-2.67-1.66-.15-1.2.28-1.52-.36.26-.52-.4-.22.63-.35.22-.03.59.02.89-.01.08-.68.03-1.55.05-2.26.03-1.33.11-1.12-1.24-1.26-.3.69-1.43,1.14-2.05,1.52-1.09.69-1.65.14-2.71.32-.3.05-.13,0-.32.11.28.47,1.8,1.22,2.25,1.3l.9.21s.08.04.12.06c-2.36.03-2.04-.78-3.61-1.1.17.64.07.3.5.77,1.56,1.68,1.95,3.02,1.57,5.33-.08-2.03.16-1.69-.57-3.46-.26-.63-1.29-1.86-1.89-2.18,0,.95.29,1.7.39,2.59.07.61-.37,1.38-.62,1.96-.67,1.56-1.92,1.64-2.66,2.62"/>
  <path class="st1" d="M275.29,21.87c-.21.09-.16-.15-.18.25.51.44.79.67,1.59.9.63,2.14.6,1.4.79,1.95.16.47-.11,1.89-.32,2.22-.91-.84-1.21-1.47-1.67-1.6-1.01-.29-1.51-.2-2.55-.69l-.22.28c1.13.5,1.29.71,2.82.79.64,2.54,1.86,1.15,1.69,3.45-1.31.8-2.42.48-1.82,2.57.35,1.23.75,2.62.59,4.06h.39c.17-3.86-.38-3.12-.49-4.97.43-.22.99-.5,1.47-.52.2,1.89.59,4.61,2.1,5.08.02-.03.03-.13.03-.11,0,.02.02-.08.03-.11.2-1.16-.12-.9.64-.92.21.37.13.4.17.9,1.13-.99,1.81-3.11,1.97-4.67.59.16.88.41,1.44.63-.17,1.23-.87,1.71-.99,4.68.32-.01.24.05.4-.11.1-.97.3-1.76.61-2.63,1.05-2.99.98-2.16-1.14-3.6-.23-2.15,1.22-1.03,1.96-3.3,1.66,0,2.86-.24,3.67-1.27-1.56.43-1.69.88-3.87.87-.41.51-.82,1.2-1.64,1.45.01-.76-.21-1.89.1-2.35.54-.8.43-.77.89-1.72,1.17-.37,1.87-.58,2.44-1.65-.88.56-.76.73-2.08,1.17-1.62.54-.46,1.83-3.39,2.11-3.67.35-2.95-1.83-4.2-2.38-.52-.23-.92-.37-1.25-.75"/>
  <path class="st1" d="M293.21,29.71l.28.14c.27-1.54,1.54-3.18,2.24-4.39.43.19.37.21.64.55l-.32.82c.98.22,2.05,1.07,2.04,2.17,0,.96-.66,2.22-.61,3.38-.05-.39.3-1.41.44-1.87.19-.65.18-1.47.89-1.42.13.75.3,3.01.21,3.74-.04.32-.38,2.77-.56,3.02-.25.33.04.11-.33.25l2.83-.05.05-1.52.03,1.59h-2.51c.83-4.62.83-1.84.59-7.14.72-.19,1.1-.44,1.4-.95.31.14.77.42,1.06.63.5.36.41.41.52,1.14.15,1.03.3,2.03.44,3.07l.09.35c-.06-.75.05-1.05-.08-1.96-.1-.66-.19-1.43-.31-2.09.77.06,2.02,1.05,3.13,1.24,1.6.28.8.8,2.19,2.32l-1.23-2.15.44-.42c.27-.26.22-.21.39-.59l-.76-.23c-.33-.09-.49-.2-.69-.39-1.06-.96-1.05-3.71-1.86-4.74-.91-.04-1.98,1.59-2.9,2.06l-.52-.65c.92-.97,3.71-3.7,4.12-5.3-.14-.39.13-.03-.27-.39-.18-.17-.2-.17-.46-.29-1.54.54-2.99,2.79-3.78,4.38.2-1.22,1.83-4.18,1.07-5.45-1.03-.46-1.65,1.38-1.88,2.26-.93,3.56.21,3.44-1.26,3.82-.31.08-.35.07-.59.23-.41.25-.46.44-.83.81l-.81-.66-1.99,3.51c-.1.28-.12.46-.22.73-.19.48.02.28-.32.44"/>
  <path class="st3" d="M276.03,36.04c.16-1.44-.24-2.83-.59-4.06-.6-2.08.51-1.76,1.82-2.57.17-2.3-1.05-.91-1.69-3.45-1.54-.07-1.69-.28-2.82-.79-1.26,1.2-3.5,7.64-3.18,10.2,1.15.09,4.87-.08,5.4.08.68.2.5.76,1.07.58"/>
  <path class="st3" d="M277.04,45.39c-.46.4-.52.34-.96.92l-2.04,2.49c-.26.38.29.18-.38.42.22,1.17,4.32,4.6,5.47,5.3.51-.13,0,.02.31-.11.11-.05.3-.15.36-.19.4-.24.28-.15.61-.46.67-.96,1.92-1.26,2.4-2.48.51-1.31.87-2.01.31-3.29-.12-.26-.08-.19-.17-.3-.43.6-.68,1-1.37,1.26-2.07.8-3.91-1.65-1.09-3.71-.78-.69-2.75-.53-3.46.16"/>
  <path class="st1" d="M297.69,38.94l-.15.23c.47.17.36.23.72.51-.47,1.55-1.24,1.6.62,3.08-.6.62-.66,1.23-.37,2.39-2.13-.94-1.24-1.99-3.36-2.12.51.26.72.1,1.16.53.35.33.42.59.74.91.72.73,1.43.96,1.77,1.45l-1.77-.12c-.41-.08-1.17-.28-1.58-.25-.72.05-2.56.64-3.05.92,2.34-.27,2.34-1.31,6.27.07v.84c-1.91.44-2.63.07-3.13.99-.37.67-1.11,1.94-1.35,2.63.46-.55,1.03-1.57,1.43-2.27.34-.61.24-.62,1.04-.71.58-.07,1.13-.13,1.7-.21-.45,1.26-.87,1.81-.64,3.49.16,1.18.82,2,2.1,1.91,1.15-.08,1.67-1.1,1.74-2.21.11-1.62-.28-1.98-.67-3.18.52.06,1.6.13,2.06.25.6.15,2.19,3.06,2.47,3.6-.37-.94-1.05-1.98-1.58-3.01-.66-1.31-.66-.68-3.29-1.27l.03-.84c4.28-1.49,4.35-.06,7.18.15-1.09-.24-2.35-.75-3.54-1.05-1-.26-3.03.76-3.78.29.31-.46,1.28-.85,1.97-1.67,1.36-1.63.63-.65,2.24-1.33-.37.03-1,.1-1.34.19-.92.24-.85,1.3-2.55,2.03.28-1.19.32-1.64-.36-2.37,2.32-1.14.89-2.48.72-3.26l1.52-.96c.43-.29.45-1.02.67-1.67h-.4c-.18,1.14,0,1.23-.8,1.69-.73.42-.72.68-1.16,1.02l-.34-.72c-.06.2-.06.26-.1.37l-1.51.04-.47-.75-.09,1.15c-.41-.15-.4-.42-.79-.76"/>
  <path class="st1" d="M277.04,45.39c.71-.69,2.68-.85,3.46-.16-2.82,2.07-.98,4.51,1.09,3.71.69-.26.94-.66,1.37-1.26.09.11.06.03.17.3.56,1.28.2,1.98-.31,3.29-.48,1.23-1.73,1.52-2.4,2.48.74-.98,1.99-1.06,2.66-2.62.25-.58.68-1.34.62-1.96-.1-.9-.39-1.64-.39-2.59.6.31,1.63,1.55,1.89,2.18.73,1.77.48,1.42.57,3.46.38-2.31,0-3.65-1.57-5.33-.43-.47-.33-.13-.5-.77,1.57.32,1.25,1.13,3.61,1.1-.04-.03-.1-.1-.12-.06l-.9-.21c-.45-.08-1.97-.83-2.25-1.3.18-.11.02-.06.32-.11,1.06-.18,1.62.37,2.71-.32.61-.39,1.75-.83,2.05-1.52l-.17-.11c-.17.65-.75.73-1.88,1.37-.92.52-1.65.24-2.81.22.09-.42.09-.56.37-.85l-.74-.74c-.29.28-.43.27-.84.37-.04-1.37-.35-2.81,1.16-4.37l-.15-.11c-.9.97-1.45,1.98-1.39,3.29l-.07,1.29s-.03.07-.04.1c-.99-.62-1.33-2.64-1.46-3.02-.01-.04-.05-.05-.06-.12,0-.07-.04-.08-.06-.12,0,2.42.78,2.02,1.11,3.62-1.11-.3-1.25-1.69-3.67-2.04.27.3.54.35.92.5.72.28,2,1.36,2.29,1.94-.98-.01-1.99-.41-2.78-.41-.62,0-1.55.62-2.23.77.17.21-.31.19.44.15"/>
  <path class="st3" d="M301.02,34.52l.62-.04c.33.58-.04.71.23,1.49,0,.03.04.07.06.1.18-.17.08.1.21-.25l.11-1.29c.03-.59.02-1.31.31-1.68-.14-1.04-.29-2.03-.44-3.07-.11-.74-.01-.78-.52-1.14-.29-.21-.75-.49-1.06-.63-.3.51-.67.76-1.4.95.24,5.3.23,2.52-.59,7.15h2.51s-.03-1.6-.03-1.6Z"/>
  <path class="st3" d="M293.48,29.85c.92.39,1.34.77,2.04,1.23l.69-1.52c-.12-.28-.1-.16-.25-.37-1.14-1.61,1.04-2.36,1.55-1.13.37.87-.31,1.1-.78,1.4-.46.29-.76,1.21-.97,1.7.02.45.33.52.71.97.26.31.51.67.72,1.07.58,1.12.54,1.72.94,2.9.37-.14.08.09.33-.25.18-.24.52-2.7.56-3.02.09-.73-.08-2.99-.21-3.74-.72-.05-.71.77-.89,1.42-.13.46-.49,1.48-.44,1.87-.05-1.16.6-2.41.61-3.38.01-1.1-1.06-1.96-2.04-2.17l.32-.82c-.27-.34-.21-.36-.64-.55-.7,1.21-1.97,2.86-2.24,4.39"/>
  <path class="st3" d="M288.93,43.58c-2.41-.73-3.65-2.1-4.74-4.01-1.51,1.56-1.21,3-1.16,4.37.41-.09.56-.09.84-.37l.74.74c-.28.29-.27.43-.37.85,1.16.02,1.9.3,2.81-.22,1.12-.64,1.7-.72,1.88-1.37"/>
  <path class="st3" d="M291.04,41.49c2.5-.08,4.75-2.09,4.64-4.58l-4.59-.02-.05,4.61Z"/>
  <path class="st3" d="M291.04,36.11h4.54c-.04-.48-.18-.61-.43-.88.03-.19-.15.07.12-.06l.15-.07s.06-.02.09-.04c-.3-1.09-.81-1.69-1.53-2.35-.66-.6-1.81-1.04-2.89-1.06l-.05,4.46Z"/>
  <path class="st3" d="M290.3,41.45l.03-4.53-4.43-.03c-.17,2.29,2.14,4.61,4.4,4.56"/>
  <path class="st3" d="M285.9,36.09l4.4.02.03-4.43c-2.31-.07-4.48,2.17-4.43,4.41"/>
  <path class="st1" d="M278.94,18.71l-.23.26.47,2.48c-.58.68-1.11,1.2-1.31,2.34,1.28,1.12,3.27.75,4.68.15-.14-1.3-.64-1.72-1.16-2.49.3-1.93,1.1-3.18,1.55-4.68h-.13c-.6,1.73-.86,1.82-1.68,4.52-.89-.27-.84-.18-1.74-.04l-.45-2.54Z"/>
  <path class="st3" d="M272.96,24.9c1.04.49,1.54.4,2.55.69.46.13.75.76,1.67,1.6.21-.32.48-1.75.32-2.22-.19-.56-.16.18-.79-1.95-.81-.22-1.08-.46-1.59-.9-.5.2-.82.78-1.2,1.28-.32.42-.85.96-.96,1.5"/>
  <path class="st3" d="M276.42,36.05l3.17.06c.05-.56.07-.2-.09-.48-1.51-.47-1.9-3.2-2.1-5.08-.48.02-1.04.3-1.47.52.12,1.85.67,1.11.49,4.98"/>
  <path class="st3" d="M297.69,38.94c.39.35.37.61.79.76l.09-1.15.47.75,1.51-.04c.05-.12.04-.18.1-.37l.34.72c.45-.33.43-.6,1.16-1.02.8-.46.63-.56.8-1.69-.77,0-.73-.05-1.12.15l-.14,1.54-.6.03-.08-1.68-2.88-.05-.45,2.05Z"/>
  <path class="st3" d="M278.94,18.71l.45,2.54c.9-.14.85-.22,1.74.04.82-2.71,1.08-2.8,1.68-4.51-1.33.35-2.74,1.33-3.87,1.93"/>
  <path class="st3" d="M280.37,35.39l-.02.72,2.43-.08c.13-2.97.82-3.46.99-4.68-.56-.21-.85-.47-1.44-.63-.16,1.57-.83,3.68-1.97,4.67"/>
  <path class="st3" d="M301.43,26.4c.41.31,1.33.45,1.84.72.67.35.97.67,1.63,1.05l-1.15-3.71c-.66.12-.74.51-1.2.92-.42.37-.72.53-1.12,1.02"/>
  <path class="st1" d="M295.52,31.08l.24.08c.21-.49.52-1.41.97-1.7.47-.3,1.15-.53.78-1.4-.52-1.22-2.69-.48-1.55,1.13.14.21.13.09.25.37l-.69,1.52Z"/>
  <path class="st4" d="M301.64,34.48l.07,1.61h2.01s.55-1.02.55-1.02c-1.1.49-.45.27-1.1,1.01l-.84-.02.32-2.85-.09-.35c-.29.37-.27,1.09-.31,1.68l-.11,1.29c-.12.35-.03.08-.21.25-.02-.03-.05-.08-.06-.1-.27-.78.1-.91-.23-1.49"/>
  <g>
    <path class="st5" d="M23.99,29.53c0-2.91,1.36-4.46,4.27-4.46s4.27,1.55,4.27,4.46v1.49h.13c1.55-4.01,5.36-5.95,9.95-5.95,7.88,0,14.8,5.75,14.8,17.97,0,9.05-4.59,17.51-14.54,17.51-4.33,0-7.56-1.75-9.31-4.78h-.13v12.6c0,3.1-1.87,4.72-4.72,4.72s-4.72-1.62-4.72-4.72V29.53ZM40.47,32.44c-5.49,0-7.56,4.91-7.56,10.27,0,4.85,1.81,10.53,7.56,10.47,6.01,0,7.5-6.07,7.5-10.47,0-5.56-2.46-10.15-7.5-10.27Z"/>
    <path class="st5" d="M63.99,17.06c0-3.1,1.87-4.72,4.72-4.72s4.72,1.62,4.72,4.72v38.77c0,3.1-1.87,4.72-4.72,4.72s-4.72-1.62-4.72-4.72V17.06Z"/>
    <path class="st5" d="M112.78,50.6c0,3.94.97,4.85.97,6.33,0,2.13-2,3.62-4.27,3.62-4.07,0-5.43-2.59-5.56-5.49-3.68,4.07-7.95,5.49-12.92,5.49-5.36,0-10.66-3.68-10.66-9.63,0-7.82,5.95-10.02,13.18-10.86l5.75-.65c2.26-.26,4.07-.78,4.07-3.49s-2.78-3.88-5.95-3.88c-6.98,0-7.17,5.17-10.92,5.17-2.39,0-4.01-1.68-4.01-3.62,0-3.75,5.3-8.53,14.99-8.53,9.05,0,15.32,2.91,15.32,9.69v15.83ZM103.35,43.81c-1.03.97-2.97,1.29-4.07,1.49l-3.43.52c-3.94.58-6.07,1.81-6.07,4.65,0,2.13,2,3.88,5.23,3.88,5.17,0,8.34-3.36,8.34-6.85v-3.68Z"/>
    <path class="st5" d="M152.92,56.93c0,11.37-6.98,16.61-16.8,16.61-7.17,0-14.22-3.23-14.22-7.82,0-2.33,1.81-4.01,3.88-4.01,3.94,0,4.72,4.85,10.02,4.85,5.75,0,8.08-2.91,8.08-10.34v-1.94h-.13c-1.68,2.46-5.36,4.52-9.11,4.52-9.95,0-15.12-6.46-15.12-15.77,0-12.21,6.85-17.97,14.8-17.97,4.59,0,8.21,2.13,9.95,5.62h.13v-1.16c0-2.91,1.49-4.46,4.27-4.46s4.26,1.55,4.26,4.46v27.4ZM136.44,51.83c4.2,0,7.43-2.78,7.43-9.5s-2.58-9.89-6.98-9.89c-6.07,0-7.95,4.46-7.95,10.27,0,4.33,2.13,9.11,7.5,9.11Z"/>
    <path class="st5" d="M191.75,50.6c0,3.94.97,4.85.97,6.33,0,2.13-2,3.62-4.27,3.62-4.07,0-5.43-2.59-5.56-5.49-3.68,4.07-7.95,5.49-12.92,5.49-5.36,0-10.66-3.68-10.66-9.63,0-7.82,5.95-10.02,13.18-10.86l5.75-.65c2.26-.26,4.07-.78,4.07-3.49s-2.78-3.88-5.95-3.88c-6.98,0-7.17,5.17-10.92,5.17-2.39,0-4.01-1.68-4.01-3.62,0-3.75,5.3-8.53,14.99-8.53,9.05,0,15.32,2.91,15.32,9.69v15.83ZM182.32,43.81c-1.03.97-2.97,1.29-4.07,1.49l-3.43.52c-3.94.58-6.07,1.81-6.07,4.65,0,2.13,2,3.88,5.23,3.88,5.17,0,8.34-3.36,8.34-6.85v-3.68Z"/>
    <path class="st5" d="M212.56,25.07c7.17,0,14.41,2.84,14.41,7.17,0,2.2-1.49,4.14-3.94,4.14-3.68,0-3.81-4.33-9.76-4.33-3.3,0-5.43.91-5.43,2.91,0,2.2,2.13,2.71,5.04,3.36l3.94.9c5.36,1.23,11.76,3.49,11.76,10.08,0,7.69-7.43,11.24-14.54,11.24-8.53,0-15.64-3.81-15.64-8.47,0-2.07,1.16-3.94,3.81-3.94,4.07,0,4.46,5.82,11.44,5.82,3.36,0,5.49-1.49,5.49-3.43,0-2.39-2.07-2.78-5.43-3.62l-5.56-1.36c-5.49-1.36-9.76-3.62-9.76-9.95,0-7.69,7.63-10.53,14.15-10.53Z"/>
  </g>
  <g>
    <path class="st5" d="M329.37,32.12h-2.13c-2.65,0-3.75-1.03-3.75-3.1s1.1-3.1,3.75-3.1h2.13v-4.72c0-5.95,4.91-9.11,10.4-9.11,3.43,0,6.2,1.36,6.2,4.52,0,1.75-1.36,3.23-3.04,3.23-.71,0-1.36-.19-2.07-.19-1.36,0-2.07.91-2.07,2.2v4.07h2.91c2.78,0,4.27.84,4.27,3.1s-1.49,3.1-4.27,3.1h-2.91v23.72c0,3.1-1.87,4.72-4.72,4.72s-4.72-1.62-4.72-4.72v-23.72Z"/>
    <path class="st5" d="M353.29,32.12h-2.13c-2.65,0-3.75-1.03-3.75-3.1s1.1-3.1,3.75-3.1h2.13v-4.72c0-5.95,4.91-9.11,10.4-9.11,3.43,0,6.2,1.36,6.2,4.52,0,1.75-1.36,3.23-3.04,3.23-.71,0-1.36-.19-2.07-.19-1.36,0-2.07.91-2.07,2.2v4.07h2.91c2.78,0,4.27.84,4.27,3.1s-1.49,3.1-4.27,3.1h-2.91v23.72c0,3.1-1.87,4.72-4.72,4.72s-4.72-1.62-4.72-4.72v-23.72Z"/>
  </g>
</svg>